<?xml version="1.0" encoding="UTF-8"?>
<svg width="110px" height="110px" viewBox="0 0 110 110" version="1.1" xmlns="http://www.w3.org/2000/svg" xmlns:xlink="http://www.w3.org/1999/xlink">
    <g id="slices" stroke="none" stroke-width="1" fill="none" fill-rule="evenodd">
        <g id="svg" transform="translate(-51.000000, -445.000000)">
            <g id="u_logo_de_tijd" transform="translate(51.000000, 445.000000)">
                <polygon id="Fill-1" fill="#18457C" points="0 110 110 110 110 0 0 0"></polygon>
                <path d="M20.1613617,11 L17.1111111,11 L17.1564486,31.8870325 C17.1564486,35.4444444 17.4262935,35.4444444 20.1613617,35.4444444 C24.7818571,35.4444444 28.3247165,32.0944477 28.1010808,22.5396815 C27.8761374,13.3161364 23.974066,11 20.1613617,11 L20.1613617,11 Z M20.1381188,37.8888889 L7.33333333,37.8888889 L7.33333333,36.8093996 C8.58326543,36.8093996 9.27338885,36.6019763 9.61782203,36.2698568 C10.3087835,35.6052142 10.3934252,35.1903675 10.3934252,23.8539143 C10.3934252,12.5182681 10.3087835,12.061856 9.61782203,11.3972134 C9.27338885,11.0646904 8.58326543,10.8988324 7.33333333,10.8988324 L7.33333333,9.77777778 L20.1381188,9.77777778 C30.3571412,9.77777778 35.4444444,14.718812 35.4444444,22.8991211 C35.4444444,32.6984624 29.6238589,37.8888889 20.1381188,37.8888889 L20.1381188,37.8888889 Z" id="Fill-3" fill="#B0CFE7"></path>
                <path d="M53.7777778,31.9510926 L53.5676615,37.8888889 L34.2222222,37.8888889 L34.2222222,36.8093996 C35.4456476,36.8093996 36.1194122,36.6019763 36.4569088,36.2698568 C37.1306734,35.6052142 37.2158667,35.1903675 37.2158667,23.8539143 C37.2158667,12.5182681 37.1306734,12.061856 36.4569088,11.3972134 C36.1194122,11.0646904 35.4456476,10.8988324 34.2222222,10.8988324 L34.2222222,9.77777778 L53.5676615,9.77777778 L53.7777778,15.7151705 L52.554762,15.7151705 L52.5133941,15.1344658 C52.3446457,12.9750837 50.9541104,11.6046368 48.4671205,11.6046368 L43.9158306,11.6046368 L43.9158306,22.4007401 L46.9930301,22.4007401 C50.1959717,22.4007401 51.0814908,21.6533703 51.3342037,19.078738 L52.554762,19.078738 L52.554762,27.5080359 L51.3342037,27.5080359 C51.0814908,24.9342106 50.1959717,24.1864373 46.9930301,24.1864373 L43.9158306,24.1864373 L43.9158306,32.4079083 C43.9158306,35.9788991 44.1689531,36.1035952 46.739498,36.1035952 L48.5093075,36.1035952 C50.7009879,36.1035952 52.3032778,34.6084522 52.4720262,32.5322008 L52.5133941,31.9510926 L53.7777778,31.9510926" id="Fill-4" fill="#B0CFE7"></path>
                <path d="M30.5555556,45.0489926 L29.4156585,45.0489926 L29.3725738,44.2600462 C29.1616642,42.8488207 28.3176151,40.9379964 25.319333,40.9379964 L22.2804282,40.9379964 L22.2804282,59.2088667 C22.2804282,65.6451364 22.9554213,66.184687 26.0796747,66.184687 L26.0796747,67.2222222 L11.8088038,67.2222222 L11.8088038,66.184687 C14.9334676,66.184687 15.6092813,65.6451364 15.6092813,59.2088667 L15.6092813,40.9379964 L12.5683249,40.9379964 C9.57209441,40.9379964 8.72722472,42.8488207 8.51549438,44.2600462 L8.47240972,45.0489926 L7.33333333,45.0489926 L7.41786134,39.1111111 L30.4710276,39.1111111 L30.5555556,45.0489926" id="Fill-5" fill="#FFFFFF"></path>
                <path d="M42.7777778,67.2222222 L30.5555556,67.2222222 L30.5555556,66.1427175 C31.7369209,66.1427175 32.3889681,65.9352911 32.7147937,65.6027633 C33.366445,64.9385148 33.4483962,64.5244692 33.4483962,53.1878532 C33.4483962,41.8520443 33.366445,41.3948186 32.7147937,40.73057 C32.3889681,40.3980422 31.7369209,40.2317783 30.5555556,40.2317783 L30.5555556,39.1111111 L42.7777778,39.1111111 L42.7777778,40.2317783 C41.5956206,40.2317783 40.9435735,40.3980422 40.6177478,40.73057 C39.9649089,41.3948186 39.8841453,41.8104783 39.8841453,53.1454801 C39.8841453,64.4820961 39.9649089,64.9385148 40.6177478,65.6027633 C40.9435735,65.9352911 41.5956206,66.1427175 42.7777778,66.1427175 L42.7777778,67.2222222" id="Fill-6" fill="#FFFFFF"></path>
                <path d="M57.4444444,40.260963 C56.1828184,40.260963 55.4853926,40.4315567 55.137737,40.7727443 C54.4411571,41.4542914 54.3540317,41.8807758 54.3540317,53.5109662 L54.3540317,67.0599226 C54.3540317,75.9225185 50.132258,78.2222222 44.8675177,78.2222222 L42.7777778,78.2222222 L42.7777778,77.0715423 C46.8680175,77.0715423 47.3476299,74.0045806 47.3920385,67.6570009 C47.3920385,67.6570009 47.4339094,66.037188 47.4339094,59.4337176 L47.4339094,53.5544428 C47.4339094,41.9234243 47.3920385,41.4542914 46.6946127,40.7727443 C46.3461112,40.4315567 45.6503771,40.260963 44.3887511,40.260963 L44.3887511,39.1111111 L57.4444444,39.1111111 L57.4444444,40.260963" id="Fill-7" fill="#FFFFFF"></path>
                <path d="M70.2712865,40.3333333 L67.2222222,40.3333333 L67.2662536,61.2208263 C67.2662536,64.7777778 67.5352374,64.7777778 70.2712865,64.7777778 C74.891966,64.7777778 78.4358384,61.4274342 78.2121939,51.8728251 C77.9881134,42.6494317 74.0858865,40.3333333 70.2712865,40.3333333 L70.2712865,40.3333333 Z M70.2494953,67.2222222 L57.4444444,67.2222222 L57.4444444,66.1427175 C58.6959966,66.1427175 59.3848322,65.9352911 59.730088,65.6027633 C60.4205996,64.9385148 60.5069135,64.5244692 60.5069135,53.1878532 C60.5069135,41.8520443 60.4205996,41.3948186 59.730088,40.73057 C59.3848322,40.3980422 58.6959966,40.2317783 57.4444444,40.2317783 L57.4444444,39.1111111 L70.2494953,39.1111111 C80.4676418,39.1111111 85.5555556,44.0518127 85.5555556,52.2326428 C85.5555556,62.0317212 79.7352303,67.2222222 70.2494953,67.2222222 L70.2494953,67.2222222 Z" id="Fill-8" fill="#FFFFFF"></path>
            </g>
        </g>
    </g>
</svg>