<svg id="Layer_1" data-name="Layer 1" xmlns="http://www.w3.org/2000/svg" viewBox="0 0 281.01 424.39"><defs><style>.cls-1{fill:#ed174c;}</style></defs><title>Artboard 1</title><path class="cls-1" d="M119.27,97c1.59.35,1.46,3.25,2.66,4.14,2.47,1.83,7.08-8.2,7.82-10.08.81-2.07-1-3.38-3.22-2.83-1.35.34-2,2.22-3.35,2.7-1.93.68-4.15,0-6.3,1a2.69,2.69,0,0,0-1.35,3.67C116.15,97.24,117.91,96.68,119.27,97Z"/><path class="cls-1" d="M168.9,54.21a7,7,0,0,0-3,3.44,3.35,3.35,0,0,0,.13,3c.88,1.21,2,.79,2.76-.33a11.93,11.93,0,0,1,1.49-1.91,1.67,1.67,0,0,1,2.68,1c.3,1.09-.45,4,.29,4.86,1.15,1.28,2,.93,2.81-.45a7.33,7.33,0,0,0,.62-2.62c0-.26,0-.52,0-.77a8.14,8.14,0,0,0-1-4.84,4.59,4.59,0,0,0-2.92-1.91A5.73,5.73,0,0,0,168.9,54.21Z"/><path class="cls-1" d="M163.37,54.6a1.44,1.44,0,0,0,1.51.47c.67-.17,1.06-1,1.28-1.71a16.39,16.39,0,0,0,.29-3.37,4.72,4.72,0,0,1,.9-2.68c1.24-1.16,2.63-.78,3.84-.14a3.57,3.57,0,0,0,2.51.74c1.07-.26,1.42-1.93.77-2.95a6.43,6.43,0,0,0-1.78-1.81,8.8,8.8,0,0,0-1.89-.79,7.11,7.11,0,0,0-6.34,1.79,5.67,5.67,0,0,0-1.76,3.08,12.75,12.75,0,0,0-.12,4.73A4.41,4.41,0,0,0,163.37,54.6Z"/><path class="cls-1" d="M258.33,187.71c-1.34-.08-4.46-.24-5.83-.33s-4.16-.4-2.67,2.27c.42.75,1.58.77,2.26.85a81.4,81.4,0,0,0,8.23.4.87.87,0,0,0,.63-1.4A3.75,3.75,0,0,0,258.33,187.71Z"/><path class="cls-1" d="M244.16,187.89a2.36,2.36,0,0,0-.33-.23l-.06,0a9.71,9.71,0,0,0-3.91-.69,29.06,29.06,0,0,0-4.46,0,2.16,2.16,0,0,0-2.05,1.41c-.59,1.78,1.84,1.78,2.46,1.78,1,0,1.45,0,2.41,0,1.13,0,3.31.06,4.48.1.65,0,1.49.09,1.9-.34A1.5,1.5,0,0,0,244.16,187.89Z"/><path class="cls-1" d="M225.17,186.45c-1,0-.63-.12-1.59-.12-1.13,0-2.92,0-4.07-.07a3,3,0,0,0-2,.36,1.45,1.45,0,0,0-.18,2,1.51,1.51,0,0,0,.26.23l.05,0c1.09.64,3.07.58,4.33.66a38.63,38.63,0,0,0,5.16-.14c.69-.06,1.63-.31,1.49-1.36C228.38,186.41,225.83,186.44,225.17,186.45Z"/><path class="cls-1" d="M210.34,186.64l-.05,0c-1.1-.62-3.08-.52-4.34-.58a29.05,29.05,0,0,0-4.46.14,2.16,2.16,0,0,0-2,1.46c-.54,1.79,1.88,1.73,2.5,1.71,1,0,1.45,0,2.41,0,1.13,0,2.92,0,4.07,0a3,3,0,0,0,2-.39,1.45,1.45,0,0,0,.14-2.05A1.5,1.5,0,0,0,210.34,186.64Z"/><path class="cls-1" d="M225.61,169.86a2.26,2.26,0,0,0,1.54,2.5,15,15,0,0,0,3,.22c.72,0,3.31.22,4,.19.49,0,1.11-.06,1.35-.67.52-1.31-1-2.55-1.82-2.6l-6.16-.39C226.75,169.07,225.78,169.28,225.61,169.86Z"/><path class="cls-1" d="M212.27,168.91a2.26,2.26,0,0,0,1.54,2.5,15,15,0,0,0,3,.22c.72,0,2.85.22,3.57.19.49,0,1.11-.06,1.35-.67.52-1.31-1-2.55-1.82-2.6s-4.76-.34-5.69-.39S212.44,168.33,212.27,168.91Z"/><path class="cls-1" d="M199.43,169.27s0,0,0,.05a1.6,1.6,0,0,0,.67,1.69c.81.42,2.81.25,3.65.3s2,0,2.69,0c.49,0,1.5-.16,1.74-.75a1.77,1.77,0,0,0-1.33-2.37,33,33,0,0,0-4.49-.21,3.54,3.54,0,0,0-2.61.65A1,1,0,0,0,199.43,169.27Z"/><path class="cls-1" d="M81.28,173.91a15.43,15.43,0,0,0-3.17-.09c-5.55-.14-7.33-.16-8.35.64a1.82,1.82,0,0,0-.63.72c-.46,1.13-.6,2.17.34,2.39a13.71,13.71,0,0,0,2.8.1c2.09-.11,3.39-.09,5.74-.14.74,0,1.57-.05,2.31-.08.55,0,1.57,0,2-.54l0,0a2.5,2.5,0,0,0,.21-2.29A2.4,2.4,0,0,0,81.28,173.91Z"/><path class="cls-1" d="M47.19,175.5a.44.44,0,0,0-.3-.42,5.42,5.42,0,0,0-2.24-.26c-2,0-3.63.07-5.49.21-.85.06-2.14.05-3.17.19a3.94,3.94,0,0,0-2.54,1.19c-.7.69-1.38,2.15-.59,2.59a1.48,1.48,0,0,0,.89.11c2.76-.3,5.48-.54,8.16-.63a9.83,9.83,0,0,0,3.36-.53A4.29,4.29,0,0,0,47.19,175.5Z"/><path class="cls-1" d="M62.32,174.22c-.87-.06-4.76.09-5.62.21-.39.05-1.4.08-1.78.17a2.45,2.45,0,0,0-1.54.91c-.62.77-1.53,1.61-.89,2.43.52.67,2.58.28,4.92.11,1.58-.12,2.89-.15,3.67-.18a4.12,4.12,0,0,0,2.61-.77c.35-.32,1.09-1.84.72-2.4S63,174.27,62.32,174.22Z"/><path class="cls-1" d="M72.53,167.48a.92.92,0,0,0,.51.13c1.14,0,2.28-.09,3.41-.09a8.87,8.87,0,0,0,3.14-.08c1.23-.45,2.34-2.95-.13-3.13-1.3-.09-2.61,0-3.91,0-1,0-2.28-.17-3.11.61A1.74,1.74,0,0,0,72.53,167.48Z"/><path class="cls-1" d="M59.21,185.3c-1.13,0-2.26,0-3.39.05a38.25,38.25,0,0,0-9,.8c-.9.22-1.41,1.4-1.59,2.47s.14,1.26.62,1.23l.83,0c2.16-.18,3.44-.16,5.61-.34,1.64-.13,3-.15,4.65-.25a6.07,6.07,0,0,0,1.85-.25,4.2,4.2,0,0,0,1.36-2.17A1.16,1.16,0,0,0,59.21,185.3Z"/><path class="cls-1" d="M80,184.36c-4.3-.39-10.52.75-12.52.88a1.58,1.58,0,0,0-1.55,1.41,2.17,2.17,0,0,0,.3,1.92,2,2,0,0,0,1.09.38c1,.12,7.45-.81,11.34-1.13.27,0,.62-.07,1.21-.17a1.66,1.66,0,0,0,1.33-1.24A1.51,1.51,0,0,0,80,184.36Z"/><path class="cls-1" d="M116.8,185.08c-1.26-.66-2.28-.56-3.59-.84l-3.93-.5c-1.39-.15-3.23-.65-3.19,1.81a1.32,1.32,0,0,0,1,1.21l.82.09c3,.23,5.21.44,8.41.9,1.57.23,1.69-1.78.86-2.42A2.65,2.65,0,0,0,116.8,185.08Z"/><path class="cls-1" d="M121,178.39c-3.36-1.31-6.74-2.12-7.43-.83-.37,1.39-.05,2.34,1.33,2.55.89.13,3.28.81,5.18,1.3,1.36.35,2.07.06,2.14-1A2,2,0,0,0,121,178.39Z"/><path class="cls-1" d="M99.58,183.43a59.06,59.06,0,0,0-6.09,0h-.24c-1.7.14-4-.06-5.6.62s-2.19,3.5.37,3.06l.49-.1a50,50,0,0,1,5-.41c1.21-.08,2.42.07,3.62.1a6.94,6.94,0,0,0,3-.23C101.45,185.92,100.88,183.59,99.58,183.43Z"/><path class="cls-1" d="M109.41,177.4a1.74,1.74,0,0,0-1-1.61,10.49,10.49,0,0,0-3.49-.74c-1.63-.09-2.7.26-3,1.19-.37,1.42.47,1.84,1.71,2C106.37,178.55,109.43,179.75,109.41,177.4Z"/><path class="cls-1" d="M121.72,169.27a.79.79,0,0,0-.52.14c-.62.43-.85,2.46-.16,3a6.16,6.16,0,0,0,3.31,1.39c.39,0,.94,0,1.22-.33a2.12,2.12,0,0,0-.32-2.73A7.6,7.6,0,0,0,121.72,169.27Z"/><path class="cls-1" d="M104.95,168.22a1.88,1.88,0,0,0-.45-2.57,13.3,13.3,0,0,0-5.58-.38,1.46,1.46,0,0,0-.73.53,1.14,1.14,0,0,0-.13.31,2.21,2.21,0,0,0,.14,1.76c.39.79,4.22.89,4.92,1A1.8,1.8,0,0,0,104.95,168.22Z"/><path class="cls-1" d="M110.75,170.23a33.35,33.35,0,0,0,4,.68c1,0,1.33-.24,1.56-1.21a2,2,0,0,0-1.28-2.47,14.57,14.57,0,0,0-4.13-.8,1.56,1.56,0,0,0-1.64,1.54A1.81,1.81,0,0,0,110.75,170.23Z"/><path class="cls-1" d="M68,165.09a2,2,0,0,0-1.12-.56,25.6,25.6,0,0,0-8.76.21,1.93,1.93,0,0,0-.88.38,2.59,2.59,0,0,0-.61,2.28c.33.69.64.64,1.47.67.06,0,1.77.06,2.07,0,1-.11,1.54-.07,2.53-.15s2.77,0,3.77-.08C67.6,167.74,69.05,166.32,68,165.09Z"/><path class="cls-1" d="M39.63,185.43c-2.55.07-5.91-.05-8.6.09a20.31,20.31,0,0,0-5.85.76A6,6,0,0,0,23,187.83c-.35.46-.87,1.21-.54,1.72s1.19.41,2.88.3c2-.12,4-.38,6-.34,2.38,0,5,0,5,0a8.6,8.6,0,0,0,2.08-.37,3.07,3.07,0,0,0,1.15-1.35C40.24,186,40.82,185.4,39.63,185.43Z"/><path class="cls-1" d="M44,169.07,45.6,169c1.25-.08,2.51-.18,3.8-.38A3.84,3.84,0,0,0,51.82,167c.71-1.17-.08-1.83-.86-1.78-1.89.13-3.55-.33-5.63.33a4.11,4.11,0,0,0-1.76,1c-.73.77-1.11,2-.52,2.38A1.52,1.52,0,0,0,44,169.07Z"/><path class="cls-1" d="M88.08,175.72c-.38,1.35.67,1.87,2.57,1.74a43.37,43.37,0,0,1,5.51,0c1.59.12,2.72-2,1.27-3a2.45,2.45,0,0,0-1.41-.34c-.84,0-2.87-.2-3.72-.19C89.29,174,88.54,174.09,88.08,175.72Z"/><path class="cls-1" d="M90.16,168.1a16.93,16.93,0,0,0,2,0,1.21,1.21,0,0,0,.81-.54,2.48,2.48,0,0,0,.22-2.09c-.37-1-5.4-1.25-6.63-1A1.75,1.75,0,0,0,85,166.32c.11,1.44,1.23,1.73,2.28,1.75C88.06,168.09,89.34,168.07,90.16,168.1Z"/><path class="cls-1" d="M129.11,181c-.25-.11-.61-.25-.84-.32-1-.32-2-.27-2,.86,0,1.32.58,1.64,2,2.63.5.36,1.78,1.06,2.4.8a1.74,1.74,0,0,0,.48-2.36A4.43,4.43,0,0,0,129.11,181Z"/><path class="cls-1" d="M254.44,182.73c1.15.07,2.15-.55,1.42-1.73-1.06-1.7-3.62-1.61-5.32-1.86a51.93,51.93,0,0,0-6.33-.35c-1.1,0-1.82.39-1.64,1.69.24,1.72,2.76,1.69,4,1.75,2.73.13,5,.32,7.74.49Z"/><path class="cls-1" d="M236.84,181.69c1.15.07,2.15-.55,1.42-1.73-1.06-1.7-2.69-1.61-4.4-1.86a68.18,68.18,0,0,0-7.26-.35c-1.1,0-2.28.39-2.11,1.69.24,1.72,3.22,1.69,4.42,1.75,2.73.13,5,.32,7.74.49Z"/><path class="cls-1" d="M217.4,180.57c1.15.07,2.22-.36,1.74-1.53-.68-1.68-1.83-1.78-3.56-1.85a64.89,64.89,0,0,0-8.55.1c-1.09.13-2.28.39-2.11,1.69.24,1.72,2,1.38,3.18,1.44,2.73.13,6.39,0,9.12.14Z"/><path class="cls-1" d="M238.5,171.59c.44,1.31,2,1.59,3.08,1.65a42,42,0,0,1,4.24.51c1.43.21,2.1-.18,1.9-1a3.18,3.18,0,0,0-2.47-2.12,21.4,21.4,0,0,0-4.82-.74C239.42,169.84,238.06,170.29,238.5,171.59Z"/><path class="cls-1" d="M168.17,179.48a34,34,0,0,0-7.55,2,2.32,2.32,0,0,0-1.16,1.21c-.41,1.12.22,2.13,1.44,1.9,1.55-.3,2.5-.65,4-1,.77-.19,2.13-.4,2.9-.56a8.51,8.51,0,0,0,2.05-.61,1.68,1.68,0,0,0,.47-2.57C169.91,179.45,169.4,179.28,168.17,179.48Z"/><path class="cls-1" d="M179.77,171.85c.51-1.69-.22-2-1.14-2.08a20.36,20.36,0,0,0-4.47.68,20.9,20.9,0,0,0-3.83,1c-.79.29-2,.51-2.34,1.42-.56,1.3-.28,2,.82,2a8.84,8.84,0,0,0,1.33-.28c1.62-.34,4.28-.83,5.94-1.11C178,173.16,179.45,172.92,179.77,171.85Z"/><path class="cls-1" d="M200,177.78c-.63-.81-2.36-.58-3.41-.59-1.79,0-5,.06-5.71,1a1.76,1.76,0,0,0-.32,1.83c.3.43.65.37,1.49.36,2.44,0,4-.07,6.33-.12A1.65,1.65,0,0,0,200,177.78Z"/><path class="cls-1" d="M192.57,168c-1.2.14-2.77.25-4,.39a10.38,10.38,0,0,0-3.07.81,1.9,1.9,0,0,0-.9,1.84c.1,1,1.07,1.2,2,1s2.8-.37,3.88-.48l1.28-.14c.57-.07,1.15-.16,1.72-.26a3,3,0,0,0,1.06-.48c.9-.56,1.09-2,.25-2.43A4.23,4.23,0,0,0,192.57,168Z"/><path class="cls-1" d="M218.63,163.46a18.84,18.84,0,0,0,3.36.22c.72,0,3.31.22,4,.19.49,0,1.11-.06,1.35-.67.52-1.31-1-2.55-1.82-2.6l-6.16-.39c-.8,0-1.77.16-1.94.75C217.23,161.73,217.5,163.24,218.63,163.46Z"/><path class="cls-1" d="M205.29,162.82c.92,0,2.77,0,3.62,0,1.39,0,2.93.21,3.66.17.49,0,1.12-.08,1.36-.69.52-1.31.13-2.4-1.32-2.55a43.82,43.82,0,0,0-6.19-.18,2.15,2.15,0,0,0-2.14,1.31C204,161.63,203.81,162.84,205.29,162.82Z"/><path class="cls-1" d="M192.26,162.93c.69.29,2.26.06,3.91,0,.73,0,2.25-.08,3-.09a1.69,1.69,0,0,0,1.53-.82c.52-1.28-.22-2.16-1-2.23a40.32,40.32,0,0,0-4.93.12,6.7,6.7,0,0,0-1.9.32,1.61,1.61,0,0,0-.82.85C191.69,161.9,191.64,162.68,192.26,162.93Z"/><path class="cls-1" d="M233.91,164.83a41.94,41.94,0,0,1,4.24.51c1.43.21,2.1-.18,1.9-1a3.18,3.18,0,0,0-2.47-2.12,21.4,21.4,0,0,0-4.82-.74c-1-.09-2.36.36-1.93,1.66S232.85,164.77,233.91,164.83Z"/><path class="cls-1" d="M179,165a60.16,60.16,0,0,1,7.32-1.33c1.47-.1,2.67-1.12,2.2-2.59-.27-.84-2.19-.59-4.75-.28-1.59.19-4.57.6-5.91,1.37A1.54,1.54,0,0,0,177,164,1.68,1.68,0,0,0,179,165Z"/><path class="cls-1" d="M188.49,185.62a27.55,27.55,0,0,0-4.32,0c-1.1.18-1.91,1-1.19,2.08.43.66,1.78.82,2.53.83,0,0,4.09.06,6.63,0,1,0,1-1.53.68-1.94C191.84,185.4,189.69,185.66,188.49,185.62Z"/><path class="cls-1" d="M185.2,178.67c-.11-1.63-2.31-1.15-3.35-1-3.18.32-5.15.57-5.95,1.48a2.24,2.24,0,0,0-.35,2.15c.61.81,3.13.22,4,.13a35,35,0,0,0,4.28-.64A1.81,1.81,0,0,0,185.2,178.67Z"/><path class="cls-1" d="M86,256.61c3.29,0,6.32-2.38,6.32-7.08s-3-7.08-6.32-7.08-6.32,2.38-6.32,7.08S82.69,256.61,86,256.61Z"/><path class="cls-1" d="M128.47,304.35a5.38,5.38,0,0,0-5.56,4.9H134C133.93,306.78,132.31,304.35,128.47,304.35Z"/><path class="cls-1" d="M281,198.32c0-3.09-1.68-5-3.7-7.57s-6.41-7.8-9.83-11.66c-4.08-4.6-9.39-10.24-13.4-14.75a39.18,39.18,0,0,0-9.46-8c-4.88-2.3-2.75-5.69-1.07-7.41,7.19-7.33,10.55-17,9.13-30.79-1.3-12.57-8.4-25.76-16.09-34.15-11.39-12.43-26-19.71-40.89-23.57-1.29-.33-7.51-1.83-8.18-3-1.16-1.44,1-4.06,0-9.41-1.66-8.93-8-12.38-14.3-13.76-4-.88-3.06-3.44-5-7.09-2.38-4.5-5.05-8.86-8.53-12.21-1.29-1.24-4-1.66-5.41-2.8C142.1,2.53,124.64.18,110,0c-8.11-.1-22.5,8.06-30.08,11-5.13,2-8.38,6.89-12.19,11.06-1.83,2-4.1,3.29-6.13,5C50.32,36.36,48,53.39,42.87,67.28c-3.07,8.33-1.9,28.22,1.75,35,.25.46,2.07,3.7-1.53,6.84-4.44,3.89-6.2,6.85-9.85,11.39a46.68,46.68,0,0,0-7.1,10.93c-2,4.84-2.6,10.92.41,15.35a24.2,24.2,0,0,0,3.4,4.22,38.59,38.59,0,0,0,8.79,6c1.27.6.63,2.17-.44,3.08C33.78,164,17.74,177.47,13.9,180.84,12,182.48,4.44,190,1.7,192.69.08,194.31,0,197.3,0,198c.15,29.6-.13,176.67,0,226.35H280.79ZM186.71,62.65a6.2,6.2,0,0,1,2.26.18c25.29,6.2,55.65,22.78,59.53,57.38A46.33,46.33,0,0,1,246.85,136c-2.06,6.62-5.76,8.93-8.8,11.1a22.06,22.06,0,0,1-9.52,3.75,70.22,70.22,0,0,1-11.62.54c-3.55-.17-7-.22-10.59-.28-3.74-.07-6.28-2-6.58-5.08-1.52-6.58-2.6-10.94-5.28-16.82-1.74-3.81,10.22-7.19,15.59-8.84a60.3,60.3,0,0,1,16.07-2.71,31.3,31.3,0,0,1,9.34,1c2.46.65,4.41-2.94-.48-4.8a23.1,23.1,0,0,0-8.45-1.18,66.07,66.07,0,0,0-20.62,3.68c-11.69,3.94-22,6.8-33.4,12-.71.33-2.08,1.33-2.79.48-1.55-1.87,1-5.12,2-7.51,2.79-6.61,5.56-14.18,6.46-21.44a67.5,67.5,0,0,0,.49-11.07c-.14-3.46-.62-7.45-.85-10.21-.12-1.41,1.52-1.74,2.89-3.76C182.82,71.72,183.66,63,186.71,62.65ZM151.54,154c5.11,6,6.33,14.91,5.83,17.51s-2.09,4-3.58,2.64-1.38-3.53-1.83-5.91c-1.66-7-3-9.61-7.39-13.88-1.21-.55-2.22-2-3.43-.94-1.21,1.28.12,2.45.88,3.18,4.54,4.57,5.93,9.9,6.71,14.86.49,3.68-.64,6.78-3.43,5.52-1.75-.79-2.47-4.87-3.06-7.81-.67-3.3-3.18-9.38-5.58-11.56-1.44-1.31-2.9.13-2.53,1.84.13.58.84,1.47,2.2,4.85,1.53,3.81,2.24,7.24,2,9.43-.15,1.28-2.47,2.38-3.53.91-3.33-4.94-3.27-13.42-10-14.68-4.39-.37-9.18-.38-16.46-2.14-5.75-1.28-7.47-1.16-13.47-1.48-1.36-.18-1.51-1.65-1.36-3.11,1.11-2.68,4-1.72,5.95-2.39,3-1,4.89-4.24,7.16-6.69,1.09-1.18,2.18-2.63,3.58-3.24,1.64-.72,3.87,0,5.55.39a20.51,20.51,0,0,0,7.38.47c2.39-.27,4.74-.86,7.12-1.21a31.14,31.14,0,0,1,7.43.05c7.84.68,15.73,3.23,21.35,10.39a18.91,18.91,0,0,1,3.43,6.28,16.5,16.5,0,0,1,.61,6.36,2.06,2.06,0,0,1-1.08,1.81c-.39.17-1.33.21-1.58-.13a5.18,5.18,0,0,1-1.17-2.65c-.07-.34-.56-2.46-.68-2.79A18.85,18.85,0,0,0,149,148.47c-1-.56-1.85-.59-2.46.87C145.77,150.26,150.17,152,151.54,154Zm3.86-10.55c-1.51-1,.1-1.92.86-2.65,4.08-3.66,8.12-5.56,14-7.6,1.81-.91,4.62-1.91,6.44-.27a19.85,19.85,0,0,1,4,5c1.77,3.53,2.26,8.52,3.42,12.44.57,2-.57,4.07-2.3,4.25a59.36,59.36,0,0,0-13.16,2.65c-1.56.5-3.54,1.14-4.09-.7A25.12,25.12,0,0,0,155.4,143.43ZM46.34,89.32a8,8,0,0,1,.15-.93c.81-3.55,3.86-4.07,6.72-4.82,3.4-.89,4.73-.34,8,1a67.7,67.7,0,0,0,7,2.59c5.41,1.28,10.08-3.13,13.51-7.68a73.86,73.86,0,0,0,5-7.65c1.64-2.86,3-6.31,5.15-8.64,3.53-3.78,6.06-7.7,10.19-9.73,5.68-2.79,11.84-.88,17.63-2.57,6-1.75,7.66-2.76,13.73-1.5,7.74,1.6,13.06,11.1,20.59,11.1,6.18-.55,4.92-6.59,5.52-9.52.46-5.31,1.31-7.5,4.08-10.6,4.84-5.29,18.7-2.77,20,10.41.59,5.87-1.86,7.76-3.28,14.62a18.91,18.91,0,0,1-1.6,4.7c-.87,1.65-2.48,3.19-3.85,1.77a4.91,4.91,0,0,1-.93-1.24,5.5,5.5,0,0,1-.55-1.13c-.31-.83-.64-1.42-1-2.44-.63-1.22-2.06-2.57-3.59-1.7-2.78,1.44.49,5.39,1.45,7.38,7.15,14.89,3.9,37-4.6,50.38a55,55,0,0,1-7.62,9.8c-2.32,2.33-6.28,5.49-9.54,5.28-5.25-.32-10.4-1.64-15.65-1.91a1.43,1.43,0,0,1-1.61-1.23,2.56,2.56,0,0,1,0-1.1c.51-2.79,2.45-5.71-1.08-7.42s-2.74,7.87-4.24,9.54c-3.38,3.75-10.13-.87-14-.59-4.73.35-8.06,4-11,8.16-7.09,9.92-12.55,1.69-12.6-7.76,0-5.4,1.23-13.5-5-19.43-1.47-1.41-3-2-4-.62-.95,1.24,1.61,2.79,2.4,3.52l.11.11c.22.34.33,1-.08,1.34-1.52,1.12-2.93-.26-4.91.73a2.16,2.16,0,0,0-1.21,3c.58,1.28,2.2.73,3.45.89,1.47.19,1.27,2.77,2.49,3.18,2.24.76,3.3-1.78,3.62.07.29,3.89-.53,7-2.29,5.45s-10.28-7.19-11.68-8c-8.61-5.23-18.51-14.43-23-27.42C47.07,95.86,46,92.48,46.34,89.32Zm-8.18,62.91A21.63,21.63,0,0,1,29.78,144a10.28,10.28,0,0,1-.61-9.79c2.6-6.45,6.91-11.21,10.79-16.49,1.88-2.56,6.57-8.95,9.81-6.16,4.69,4,6.48,7,12.06,12,1.54,1.37-.08,2.31-1.54,2.35a21.24,21.24,0,0,0-5.31.59,26.71,26.71,0,0,0-6.9,2.82c-1.65.95-3.89,2.61-4.3,4.72s.73,2.55,2.43,1.47a57.1,57.1,0,0,1,6.15-3.92c3.19-1.66,6.32-2.06,9.8-2.35a25.18,25.18,0,0,1,7,.44c2.76.62,4.91,2.11,7.74,4,2.39,1.57,4.89,2.72,7.21,4.44a1.83,1.83,0,0,1,.29,2.33,12.46,12.46,0,0,0-1.93,2.91,13.41,13.41,0,0,0-1.31,4.31c-.12,1.51.09,3.13-.18,4.66a3.27,3.27,0,0,1-3.09,3c-4.22.49-9.29.33-13.64.52-4.83.22-8.26-.14-12.46-.12a32.36,32.36,0,0,1-8.87-1.31A28.29,28.29,0,0,1,38.16,152.23Zm-13,73.91h6.17a.58.58,0,0,1,.56.43l6.46,24.23,7.81-24.26a.58.58,0,0,1,.55-.4h6.38a.58.58,0,0,1,.55.4l7.86,24.36,6.36-24.33a.58.58,0,0,1,.56-.43h5.91a.58.58,0,0,1,.56.74l-9.58,34.67a.58.58,0,0,1-.56.43H58.42a.58.58,0,0,1-.55-.4l-8.06-25.12-8.06,25.12a.58.58,0,0,1-.55.4H34.79a.58.58,0,0,1-.56-.43l-9.63-34.67A.58.58,0,0,1,25.15,226.14ZM86,236.35a13.19,13.19,0,1,1-13,13.19A12.74,12.74,0,0,1,86,236.35ZM61.33,295.61a4.14,4.14,0,1,1,4.14-4.09A4.15,4.15,0,0,1,61.33,295.61Zm3.39,4.62v23.7a.58.58,0,0,1-.58.58H58V300.23a.58.58,0,0,1,.58-.58h5.56A.58.58,0,0,1,64.72,300.23Zm-23.45,74.5H34.85v12.91a.58.58,0,0,1-.58.58H28.46a.58.58,0,0,1-.58-.58V353a.58.58,0,0,1,.58-.58H41.27c7.08,0,11.78,4.7,11.78,11.17S48.34,374.73,41.27,374.73Zm0-63.71H34.85v12.91a.58.58,0,0,1-.58.58H28.46a.58.58,0,0,1-.58-.58V289.27a.58.58,0,0,1,.58-.58H41.27c7.08,0,11.78,4.7,11.78,11.17S48.34,311,41.27,311Zm30.12,58.32a.58.58,0,0,1-.66.57,10,10,0,0,0-1.36-.09c-3.44,0-6.42,1.67-6.42,7v10.79a.58.58,0,0,1-.58.58H56.81a.58.58,0,0,1-.58-.58v-23.7a.58.58,0,0,1,.58-.58h5.36a.58.58,0,0,1,.58.58V367c1.52-3.29,5-3.89,7.08-3.89.36,0,.7,0,1,.05a.58.58,0,0,1,.53.58ZM69.44,312c0-7.93,5.86-13.09,12.23-13.09,7.68,0,12.28,4.9,12.28,12.89,0,.56,0,1.13-.06,1.53a.58.58,0,0,1-.58.54H76.06a6.06,6.06,0,0,0,6.27,5.66,5.47,5.47,0,0,0,5.48-3.33.57.57,0,0,1,.69-.31L93,317.22a.58.58,0,0,1,.39.74c-1.43,4-5.29,7.32-11.14,7.32C75.46,325.28,69.44,320.37,69.44,312Zm14,75.66a.58.58,0,0,1-.58.58H77.3a.58.58,0,0,1-.58-.58v-23.7a.58.58,0,0,1,.58-.58h5.56a.58.58,0,0,1,.58.58Zm-3.39-28.33a4.14,4.14,0,1,1,4.14-4.09A4.15,4.15,0,0,1,80.06,359.32ZM96.61,390.6a7.93,7.93,0,0,1-7.91,8,13,13,0,0,1-3.23-.41.58.58,0,0,1-.43-.56v-4.48a.58.58,0,0,1,.68-.57,8.24,8.24,0,0,0,1.39.11c2,0,2.78-1.11,2.78-2.93v-25.8a.58.58,0,0,1,.58-.58H96a.58.58,0,0,1,.58.58Zm-3.39-31.33a4.12,4.12,0,0,1-4.14-4.09,4.14,4.14,0,1,1,8.29,0A4.09,4.09,0,0,1,93.22,359.27ZM97,305.62a.58.58,0,0,1-.58-.58v-4.8a.58.58,0,0,1,.58-.58h.68c2.63,0,3.84-1.72,3.84-3.94V292.8a.58.58,0,0,1,.58-.58H107a.58.58,0,0,1,.58.58v6.85H112a.58.58,0,0,1,.58.58V305a.58.58,0,0,1-.58.58h-4.42V316c0,2.17,1,2.88,2.93,2.88a12.26,12.26,0,0,0,1.42-.09.58.58,0,0,1,.65.58v4.46a.57.57,0,0,1-.39.55,10.9,10.9,0,0,1-3.4.46c-4.85,0-7.88-2.88-7.88-7.68V305.62Zm17.11-49.15c3,0,4.7-2,4.7-4.9V237.69a.58.58,0,0,1,.58-.58h5.56a.58.58,0,0,1,.58.58v19.79c0,1.53.1,2.92.19,3.87a.58.58,0,0,1-.58.63h-5.27a.58.58,0,0,1-.58-.51,19.81,19.81,0,0,1-.13-2.17c-1.36,2.32-4.25,3.34-6.87,3.34-6,0-9.45-4.4-9.45-9.8V237.69a.58.58,0,0,1,.58-.58h5.56a.58.58,0,0,1,.58.58v13.77C109.52,254.24,110.94,256.46,114.07,256.46ZM111.44,389c-7,0-9.71-4.26-10.28-7.12a.58.58,0,0,1,.45-.68l4.62-1a.58.58,0,0,1,.69.45c.37,1.73,1.82,3.21,4.46,3.21,2.22,0,3.29-1.16,3.29-2.48,0-1.11-.76-2-2.68-2.43l-3.29-.76c-4.8-1.06-7-3.94-7-7.43,0-4.45,3.94-8.14,9.3-8.14,6.6,0,9.11,3.92,9.67,6.62a.58.58,0,0,1-.45.68l-4.5,1a.58.58,0,0,1-.69-.42,3.78,3.78,0,0,0-4-2.79c-1.77,0-3.18,1.06-3.18,2.48,0,1.21.91,2,2.27,2.22l3.54.76c4.9,1,7.38,4,7.38,7.63C121.09,384.84,118,389,111.44,389Zm29.15-75.67a.58.58,0,0,1-.58.54H122.76a6.06,6.06,0,0,0,6.27,5.66,5.47,5.47,0,0,0,5.48-3.33.57.57,0,0,1,.69-.31l4.53,1.35a.58.58,0,0,1,.39.74c-1.43,4-5.29,7.32-11.14,7.32-6.82,0-12.84-4.9-12.84-13.29,0-7.93,5.86-13.09,12.23-13.09,7.68,0,12.28,4.9,12.28,12.89C140.65,312.34,140.62,312.91,140.59,313.31Zm-6.3-58.67V243.07h-3.92a.58.58,0,0,1-.58-.58v-4.8a.58.58,0,0,1,.58-.58h.68c2.63,0,3.84-1.72,3.84-3.94v-2.91a.58.58,0,0,1,.58-.58h4.9a.58.58,0,0,1,.58.58v6.85h4.42a.58.58,0,0,1,.58.58v4.8a.58.58,0,0,1-.58.58H141v10.41c0,2.17,1,2.88,2.93,2.88a12.27,12.27,0,0,0,1.42-.09.58.58,0,0,1,.65.58v4.46a.57.57,0,0,1-.39.55,10.9,10.9,0,0,1-3.4.46C137.32,262.33,134.29,259.45,134.29,254.64Zm25.67,51a.58.58,0,0,1-.66.57,10,10,0,0,0-1.36-.09c-3.44,0-6.42,1.67-6.42,7v10.79a.58.58,0,0,1-.58.58h-5.56a.58.58,0,0,1-.58-.58v-23.7a.58.58,0,0,1,.58-.58h5.36a.58.58,0,0,1,.58.58v3.11c1.52-3.29,5-3.89,7.08-3.89.36,0,.7,0,1,.05a.58.58,0,0,1,.53.58Zm-10.41-56.2c0-7.93,5.86-13.09,12.23-13.09,7.68,0,12.28,4.9,12.28,12.89,0,.56,0,1.13-.06,1.53a.58.58,0,0,1-.58.54H156.17a6.06,6.06,0,0,0,6.27,5.66,5.47,5.47,0,0,0,5.48-3.33.57.57,0,0,1,.69-.31l4.53,1.35a.58.58,0,0,1,.39.74c-1.43,4-5.29,7.32-11.14,7.32C155.56,262.73,149.55,257.83,149.55,249.44Zm23.55,75.84c-7,0-9.71-4.26-10.28-7.12a.58.58,0,0,1,.45-.68l4.62-1a.58.58,0,0,1,.69.45c.37,1.73,1.82,3.21,4.46,3.21,2.22,0,3.29-1.16,3.29-2.48,0-1.11-.76-2-2.68-2.43l-3.29-.76c-4.8-1.06-7-3.94-7-7.43,0-4.45,3.94-8.14,9.3-8.14,6.6,0,9.11,3.92,9.67,6.62a.58.58,0,0,1-.45.68l-4.5,1a.58.58,0,0,1-.69-.42,3.78,3.78,0,0,0-4-2.79c-1.77,0-3.18,1.06-3.18,2.48,0,1.21.91,2,2.27,2.22l3.54.76c4.9,1,7.38,4,7.38,7.63C182.75,321.13,179.62,325.28,173.1,325.28Zm6.85-63.3a.58.58,0,0,1-.58-.58v-23.7a.58.58,0,0,1,.58-.58h5.36a.58.58,0,0,1,.58.58v3.11c1.52-3.29,5-3.89,7.08-3.89.36,0,.7,0,1,.05a.58.58,0,0,1,.53.58v5.56a.58.58,0,0,1-.66.57,10,10,0,0,0-1.36-.09c-3.44,0-6.42,1.67-6.42,7v10.79a.58.58,0,0,1-.58.58Zm30.11,51.34a.58.58,0,0,1-.58.54H192.23a6.06,6.06,0,0,0,6.27,5.66,5.47,5.47,0,0,0,5.48-3.33.57.57,0,0,1,.69-.31l4.53,1.35a.58.58,0,0,1,.39.74c-1.43,4-5.29,7.32-11.14,7.32-6.82,0-12.84-4.9-12.84-13.29,0-7.93,5.86-13.09,12.23-13.09,7.68,0,12.28,4.9,12.28,12.89C210.12,312.34,210.09,312.91,210.06,313.31Zm4.06-70.82a.58.58,0,0,1-.58.58h-4.42v10.41c0,2.17,1,2.88,2.93,2.88a12.28,12.28,0,0,0,1.42-.09.58.58,0,0,1,.65.58v4.46a.57.57,0,0,1-.39.55,10.9,10.9,0,0,1-3.4.46c-4.85,0-7.88-2.88-7.88-7.68V243.07h-3.92a.58.58,0,0,1-.58-.58v-4.8a.58.58,0,0,1,.58-.58h.68c2.63,0,3.84-1.72,3.84-3.94v-2.91a.58.58,0,0,1,.58-.58h4.9a.58.58,0,0,1,.58.58v6.85h4.42a.58.58,0,0,1,.58.58Zm4.68,29.84a13,13,0,0,1-3.24-.41.58.58,0,0,1-.43-.56v-4.48a.58.58,0,0,1,.68-.57,8.24,8.24,0,0,0,1.39.11c2,0,2.78-1.11,2.78-2.93v-25.8a.58.58,0,0,1,.58-.58h5.56a.58.58,0,0,1,.58.58v26.66A7.93,7.93,0,0,1,218.79,272.33ZM223.31,233a4.12,4.12,0,0,1-4.14-4.09,4.14,4.14,0,1,1,8.29,0A4.09,4.09,0,0,1,223.31,233Zm32,17.75a.58.58,0,0,1-.58.54H237.46a6.06,6.06,0,0,0,6.27,5.66,5.47,5.47,0,0,0,5.48-3.33.57.57,0,0,1,.69-.31l4.53,1.35a.58.58,0,0,1,.39.74c-1.43,4-5.29,7.32-11.14,7.32-6.82,0-12.84-4.9-12.84-13.29,0-7.93,5.86-13.09,12.23-13.09,7.68,0,12.28,4.9,12.28,12.89C255.35,249.79,255.32,250.36,255.29,250.77Zm19-55.31a5.87,5.87,0,0,1-3.19,1.77c-4.64,1.31-14.69-.25-20.86-.58-8.9-.49-18-1.24-26.91-1.22-13.6,0-40.1-3.13-49.65-3.3-5.38-.1-15.19,0-22,2.33-1.69.58-7,3.2-10.75,3.2-7.07,0-8.08-3.38-15-4.76-7.65-1.52-17.63-1-24.9-.54-10.82.73-15.49,2-31.48,2.79-3.51.17-15.08.78-21.33,1-9.84.36-16-.32-20,0-2.51.18-15.28.33-17.8.4-4.81.13-6.94-1.33-4.66-3.65,6.46-6.6,12.94-12.52,19.7-18.69,4.17-3.66,9.17-7.42,12.55-10,4.42-3.38,11.36-4,16.75-4.34,16-1.06,29.2-2.52,47.22.71,1.06.19,2.13.25,3.2.4,2.91.4,6.82,1,9.71,1.51,5.39,1,9.17-.35,11.69,2.89,1.79,2.29,2.61,5.67,3.84,8.38.86,1.88,1.49,3.45,2.72,4.36a3.55,3.55,0,0,0,2.84.77c1.12-.13,1.73-.74,2.5.65.64,1.16.35,2.24.36,3.88,0,1.82-.11,3.86-.05,5.62s-.17,3.45.59,4.09c2,1.71,4.59.23,4.44-2.4a76.66,76.66,0,0,1,.07-8.34c.06-.86.31-2.33,1.66-2.38,2.91-.1,4.5-2.28,5.29-2.71,1.93-1.06,3.92,1.57,6.52-1.12a10.65,10.65,0,0,0,2.62-4.89c.34-1.21,2.31-2,3.33-2.32a77.16,77.16,0,0,1,8.49-2.59,1.53,1.53,0,0,0,.26-2.87c-1.21-.73-5.62,2.21-5.5-.55-.12-2.41,6.28-3.4,8.94-4A135.26,135.26,0,0,1,198,156.1c15-.84,6.17-.69,23.86-.07a84.73,84.73,0,0,1,13.44,1.42c2.9.43,7.82,1.85,9.72,3.19a26.3,26.3,0,0,1,5.28,4.46c4.25,4.59,20.06,21.41,23.29,26.66C274.74,193.57,274.83,194.74,274.31,195.46Z"/><path class="cls-1" d="M40.41,294.75H34.9V305h5.51c3.49,0,5.61-2,5.61-5.1S43.9,294.75,40.41,294.75Z"/><path class="cls-1" d="M81.78,304.35a5.38,5.38,0,0,0-5.56,4.9H87.33C87.23,306.78,85.62,304.35,81.78,304.35Z"/><path class="cls-1" d="M40.41,358.46H34.9v10.26h5.51c3.49,0,5.61-2,5.61-5.1S43.9,358.46,40.41,358.46Z"/><path class="cls-1" d="M243.17,241.81a5.38,5.38,0,0,0-5.56,4.9h11.12C248.63,244.23,247,241.81,243.17,241.81Z"/><path class="cls-1" d="M197.94,304.35a5.38,5.38,0,0,0-5.56,4.9H203.5C203.4,306.78,201.78,304.35,197.94,304.35Z"/><path class="cls-1" d="M161.88,241.81a5.38,5.38,0,0,0-5.56,4.9h11.12C167.34,244.23,165.72,241.81,161.88,241.81Z"/></svg>